<svg xmlns="http://www.w3.org/2000/svg" viewBox="0 0 960 540" role="img" aria-labelledby="title desc">
  <title id="title">Magical boot house</title>
  <desc id="desc">A whimsical giant boot shaped house on a London canal at dusk.</desc>
  <defs>
    <linearGradient id="sky" x1="0" x2="0" y1="0" y2="1">
      <stop offset="0" stop-color="#e8edf2"/>
      <stop offset=".56" stop-color="#f4dcc4"/>
      <stop offset="1" stop-color="#c79b73"/>
    </linearGradient>
    <linearGradient id="boot" x1=".16" x2=".84" y1=".05" y2=".9">
      <stop offset="0" stop-color="#6f4a35"/>
      <stop offset=".55" stop-color="#3b2a25"/>
      <stop offset="1" stop-color="#1e1818"/>
    </linearGradient>
    <linearGradient id="water" x1="0" x2="1" y1="0" y2="1">
      <stop offset="0" stop-color="#6b8796"/>
      <stop offset="1" stop-color="#2d4654"/>
    </linearGradient>
    <filter id="glow" x="-20%" y="-20%" width="140%" height="140%">
      <feGaussianBlur stdDeviation="8" result="blur"/>
      <feMerge>
        <feMergeNode in="blur"/>
        <feMergeNode in="SourceGraphic"/>
      </feMerge>
    </filter>
  </defs>
  <rect width="960" height="540" fill="url(#sky)"/>
  <path d="M0 330c88-35 168-43 240-24 89 23 164 13 250-18 93-34 177-23 252 20 70 40 142 41 218 8v224H0Z" fill="url(#water)"/>
  <path d="M0 392c108-23 195-18 260 14 77 38 152 36 224-6 78-45 162-42 252 9 66 37 141 36 224-4v135H0Z" fill="#263b48" opacity=".55"/>
  <g opacity=".55" fill="#41545c">
    <rect x="58" y="180" width="42" height="154"/>
    <rect x="115" y="144" width="58" height="190"/>
    <rect x="194" y="202" width="32" height="132"/>
    <rect x="788" y="168" width="48" height="168"/>
    <rect x="850" y="120" width="62" height="216"/>
  </g>
  <g transform="translate(236 70)">
    <path d="M330 52c-15 28-18 61-9 99l34 142c8 34-10 57-52 68-76 20-165 15-267-16-25-8-34-37-15-58 27-29 60-44 98-44h97c-10-52-20-107-31-165-5-27 7-48 37-63 34-17 70-5 108 37Z" fill="url(#boot)" stroke="#1d1715" stroke-width="7"/>
    <path d="M221 44c33-21 70-16 111 15 5 5 9 12 11 21 9 47 8 83-2 108-35-18-75-20-120-7-15-52-15-98 0-137Z" fill="#7d563c"/>
    <path d="M60 270c90 26 168 32 234 17 24-5 38-16 42-32l11 45c8 31-7 51-46 61-74 19-160 14-259-15-25-7-34-35-18-55 9-10 21-17 36-21Z" fill="#201818" opacity=".52"/>
    <path d="M214 215c28-23 61-30 99-20 14 4 25 17 27 32l9 53c-47 8-93 8-136-1Z" fill="#f0d7aa" stroke="#2a201d" stroke-width="5"/>
    <path d="M231 229h89v49h-89Z" fill="#7ec6db" opacity=".76"/>
    <path d="M92 261c28-14 58-14 89 0v58c-32-3-62-9-89-18Z" fill="#f0d7aa" stroke="#2a201d" stroke-width="5"/>
    <path d="M109 273h55v39h-55Z" fill="#7ec6db" opacity=".8"/>
    <path d="M259 95c34-18 65-13 93 15" fill="none" stroke="#2a201d" stroke-width="8" stroke-linecap="round"/>
    <path d="M268 130c37-18 68-12 94 18" fill="none" stroke="#2a201d" stroke-width="8" stroke-linecap="round"/>
    <g filter="url(#glow)">
      <circle cx="356" cy="216" r="5" fill="#ffe4a8"/>
      <circle cx="75" cy="250" r="5" fill="#ffe4a8"/>
      <circle cx="215" cy="185" r="4" fill="#ffe4a8"/>
    </g>
  </g>
  <path d="M0 505c92-18 180-18 263 0 94 20 189 20 286 0 109-22 246-20 411 7v28H0Z" fill="#192c36" opacity=".45"/>
</svg>
