<svg xmlns="http://www.w3.org/2000/svg" viewBox="0 0 720 420" role="img" aria-label="Espresso with London skyline view">
  <defs>
    <linearGradient id="sky" x1="0" x2="1" y1="0" y2="1">
      <stop stop-color="#f8efe3"/>
      <stop offset="1" stop-color="#d7e1e8"/>
    </linearGradient>
    <linearGradient id="coffee" x1="0" x2="1">
      <stop stop-color="#5a321f"/>
      <stop offset="1" stop-color="#c7742e"/>
    </linearGradient>
  </defs>
  <rect width="720" height="420" rx="34" fill="url(#sky)"/>
  <path d="M0 256c90-28 147-30 230-9 73 19 137 19 218-5 88-26 178-23 272 8v170H0z" fill="#c9b7a4"/>
  <path d="M0 292h720v128H0z" fill="#3b332c"/>
  <g fill="#67594b">
    <rect x="70" y="124" width="48" height="146" rx="8"/>
    <rect x="140" y="82" width="62" height="188" rx="8"/>
    <rect x="230" y="145" width="76" height="125" rx="8"/>
    <rect x="338" y="116" width="58" height="154" rx="8"/>
    <rect x="430" y="70" width="34" height="200" rx="8"/>
    <rect x="492" y="132" width="88" height="138" rx="8"/>
    <path d="M606 270V104l30 54 30-54v166z"/>
  </g>
  <path d="M42 274h636" stroke="#fff8ec" stroke-width="8" stroke-linecap="round" opacity=".72"/>
  <g transform="translate(250 238)">
    <ellipse cx="110" cy="118" rx="150" ry="34" fill="#1e1a17" opacity=".2"/>
    <path d="M0 12h232v78c0 68-52 124-116 124S0 158 0 90z" fill="#fff7ed"/>
    <path d="M26 44h180v44c0 48-40 88-90 88S26 136 26 88z" fill="url(#coffee)"/>
    <path d="M231 42h42c37 0 61 24 61 57s-24 57-61 57h-42v-31h38c19 0 31-10 31-26s-12-26-31-26h-38z" fill="#fff7ed"/>
    <path d="M74 8c-18-30 18-44 0-76M120 8c-18-30 18-44 0-76M166 8c-18-30 18-44 0-76" stroke="#8b6b52" stroke-width="10" stroke-linecap="round" opacity=".65"/>
  </g>
  <text x="34" y="64" font-family="Arial, sans-serif" font-size="34" font-weight="900" fill="#2f2923">London espresso</text>
  <text x="34" y="102" font-family="Arial, sans-serif" font-size="22" font-weight="700" fill="#7d5a3f">good coffee, better views</text>
</svg>
